<?xml version="1.0" standalone="yes"?>
<svg xmlns="http://www.w3.org/2000/svg" width="1198" height="410">
<path style="fill:#7c8cbf; stroke:none;" d="M0 0L0 381L1 381L1 114L1 36L0 0z"/>
<path style="fill:#121d66; stroke:none;" d="M1 0L1 141L1 178C1 182.358 -0.37797 189.714 2.14969 193.51C6.08712 199.422 20.5955 202.429 27 205.144C50.3175 215.03 74.1289 224.245 98 232.698C167.179 257.197 236.9 276.778 309 290.337C340.693 296.297 373.723 302.081 406 303L406 302L401 302L401 0L1 0z"/>
<path style="fill:#0e1d50; stroke:none;" d="M401 0L401 302C451.097 307.055 499.869 303 550 303L550 334L611 324L611 325L546 336L546 368C426.456 340.344 308.001 316.732 185 333.312C139.193 339.487 94.3111 350.373 50 363.432C33.5397 368.284 17.605 375.879 1 380L1 410L1198 410L1198 321C1179.64 328.17 1161.97 336.814 1144 344.873C1136.98 348.023 1128.77 353.784 1121 354.499C1112.05 355.322 1100.6 349.486 1092 347.158C1070.45 341.329 1048.77 335.83 1027 330.884C1013.37 327.787 999.717 324.5 986 321.81C981.2 320.868 972.281 321.046 968.717 317.31C965.682 314.128 967 307.02 967 303L967 267C967 263.011 968.832 253.106 964.588 250.845C956.985 246.794 938.692 249 930 249C898.489 249 867.336 254.572 836 255L836 92C846.167 101.015 862.875 99.9735 876 101.104C909.037 103.951 941.82 104 975 104L975 103C962.806 102.991 957.861 94.8711 948 89L948 91L921 58L919 60L903 36L900 38L898 33L897 33L901 46L900 46L872 0L401 0z"/>
<path style="fill:#0e3665; stroke:none;" d="M872 0C876.681 16.3795 890.62 32.0616 900 46L901 46L897 33L898 33L900 38L903 36C905.121 41.2838 914.742 59.5447 921 58C926.98 69.2283 937.816 83.3692 948 91L948 89C953.138 93.1753 958.772 99.9432 965 102.283C973.333 105.415 987.296 103.266 996 102.305C1013.9 100.329 1032.99 97.1037 1051 97L1051 96L1023 74L1023 76L1018 72L1018 74L986 40L986 45L964.169 16L953.45 1.14969L930 0L872 0z"/>
<path style="fill:#0f4475; stroke:none;" d="M954 0C960.119 14.9529 973.8 34.4393 986 45L986 40L1018 74L1018 72L1023 76L1023 74C1030.23 81.2257 1040.65 92.8353 1051 95.4528C1060.41 97.8318 1074.73 92.7039 1084 90.6552C1108.84 85.1671 1133.2 77.2604 1158 72C1153.01 63.6723 1142.61 61.5361 1135 56.5292C1125.45 50.2405 1116.44 36.7188 1105.8 32.9041C1099.09 30.4969 1087.36 35.9377 1080 35.9967C1064.85 36.118 1052.44 31.5766 1038 28L1038 27L1050 30L1039 16L1036 18L1022.67 1.14969L1003 0L954 0z"/>
<path style="fill:#125489; stroke:none;" d="M1023 0L1036 18L1039 16L1050 30L1038 27L1038 28C1062.42 36.3494 1080.92 35.9915 1106 32C1105.67 23.0308 1115.77 28.4785 1108 33C1115.13 46.4468 1132.49 54.8323 1145 62.0936C1149.53 64.7213 1154.53 70.0367 1160 70.2825C1166.17 70.5599 1174.25 66.0439 1180 63.9369C1184.62 62.2423 1193.83 60.3149 1196.85 56.2253C1199.44 52.7236 1198 45.1294 1198 41L1198 0L1023 0z"/>
<path style="fill:#2b7ab2; stroke:none;" d="M1107.39 26.3053C1103.65 28.3621 1106.81 34.3328 1110.59 31.812C1113.86 29.6282 1110.86 24.4032 1107.39 26.3053z"/>
<path style="fill:#0a133a; stroke:none;" d="M836 92L836 255C866.97 254.822 897.861 249 929 249C938.182 249 955.538 246.942 963.784 250.845C968.808 253.223 967 262.494 967 267L967 304C967 307.712 965.607 315.159 968.717 317.91C972.32 321.096 980.45 320.917 985 321.81C998.385 324.435 1011.69 327.663 1025 330.656C1047.11 335.628 1069.12 341.24 1091 347.158C1100.04 349.605 1111.57 355.416 1121 354.71C1134.73 353.682 1150.51 342.073 1163 336.568C1171.15 332.974 1191.94 327.877 1196.85 320.51C1199.86 315.992 1198 306.234 1198 301L1198 250L1198 57C1170.3 63.8738 1143.95 76.6472 1116 83.5123C1056.11 98.2244 995.506 104 934 104C912.251 104 890.61 102.764 869 100.304C856.564 98.8885 846.604 98.6548 836 92z"/>
<path style="fill:#183a92; stroke:none;" d="M1 194L1 380C17.4966 377.279 33.9293 368.582 50 363.729C82.9477 353.78 116.223 345.576 150 339.109C196.373 330.23 244.78 325.626 292 327.027C315.702 327.73 339.346 331.326 363 332L363 299C311.265 289.309 259.948 281.625 209 267.842C137.56 248.515 69.7776 220.857 1 194z"/>
<path style="fill:#123471; stroke:none;" d="M363 299L363 332L546 368L546 336L611 325L611 324L550 334L550 303L454 305.973L363 299z"/>
<path style="fill:#435581; stroke:none;" d="M0 381L0 410L1 410L0 381z"/>
</svg>
