<?xml version="1.0" standalone="yes"?>
<svg xmlns="http://www.w3.org/2000/svg" width="1024" height="1024">
<path style="fill:#fefefe; stroke:none;" d="M0 0L0 1024L1024 1024L1024 0L0 0z"/>
<path style="fill:#acd6ee; stroke:none;" d="M496 148L496 149L510 149L496 148z"/>
<path style="fill:#716771; stroke:none;" d="M486.667 149.333L487.333 149.667L486.667 149.333z"/>
<path style="fill:#001f4e; stroke:none;" d="M488 149L488 150L495 150L495 151C471.531 152.242 438.631 170.187 435.617 196C434.092 209.065 439.849 221.065 446 232L447 232C447.189 220.053 460.797 204.441 473 203C476.916 199.548 480.969 199.233 486 200L496 198L496 197L492 197L495 194L492 193L492 192L498 195L497 191C500.78 190.194 502.533 185.641 503 182C505.641 182.062 505.447 181.009 504 179L509 177C508.279 172.671 512.333 169.332 513 172L514 172L513 168C517.19 166.753 519.025 164.357 519 160L522 161L530 155L530 154L524 153L524 152L544 155C530.576 146.108 503.583 149.09 488 149z"/>
<path style="fill:#0059b5; stroke:none;" d="M496 149L496 150L504 150L496 149z"/>
<path style="fill:#002270; stroke:none;" d="M504 149L504 150L515 150L504 149z"/>
<path style="fill:#2d7cb8; stroke:none;" d="M515 149L515 150L520 150L515 149z"/>
<path style="fill:#575f6c; stroke:none;" d="M478.667 150.333L479.333 150.667L478.667 150.333z"/>
<path style="fill:#000005; stroke:none;" d="M455 156L455 157L467 155L467 156L462 158L462 159L488 151C478.303 147.403 464.569 153.742 455 156z"/>
<path style="fill:#1293de; stroke:none;" d="M455 165L495 151C483.404 146.758 463.308 157.336 455 165z"/>
<path style="fill:#4f92ae; stroke:none;" d="M526.667 150.333L527.333 150.667L526.667 150.333z"/>
<path style="fill:#7e89a2; stroke:none;" d="M468 152L469 153L468 152z"/>
<path style="fill:#06457e; stroke:none;" d="M478.667 152.333L479.333 152.667L478.667 152.333z"/>
<path style="fill:#003a74; stroke:none;" d="M524 152L524 153L530 154L530 155C525.862 155.677 523.791 157.206 522 161L519 160L513 168L514 172L513 172L512 170L510 171L509 177L504 179C505.502 181.002 505.979 182.745 503 182L497 191L498 195L496 192L492 192L492 193L495 194L492 197L510 199L509 201C533.788 202.348 550.92 221.465 573 229L573 228L540 209L540 208L545 209L547 201L550 198L562 195L563 195L565 193L564 190L567 191L567 187L581 181L578 175L584 172C567.74 159.07 544.593 152.282 524 152z"/>
<path style="fill:#8297ac; stroke:none;" d="M464 153L465 154L464 153z"/>
<path style="fill:#7c93a2; stroke:none;" d="M457 155L458 156L457 155z"/>
<path style="fill:#002c63; stroke:none;" d="M393 266L395 267L396 267L395 262C397.774 259.943 397.755 258.292 397 255L401 254L399 252L399 251L405 251L402 248L406 242L412 243L409 236C414.449 235.453 417.824 232.718 417 227L422 227L421 223C435.292 219.039 428.493 204.695 432.294 194.059C437.463 179.595 449.939 167.423 463 160L462 158L467 156C456.61 152.553 438.545 163.555 429.99 168.873C394.748 190.776 375.062 226.646 393 266z"/>
<path style="fill:#5f91b7; stroke:none;" d="M549 155L550 156L549 155z"/>
<path style="fill:#626f80; stroke:none;" d="M454 156L455 157L454 156z"/>
<path style="fill:#5c92bc; stroke:none;" d="M552 156L553 157L552 156z"/>
<path style="fill:#5b7091; stroke:none;" d="M451 157L452 158L451 157z"/>
<path style="fill:#000112; stroke:none;" d="M440 162L440 163L455 158L440 162z"/>
<path style="fill:#57a0d3; stroke:none;" d="M555 157L556 158L555 157z"/>
<path style="fill:#8c99aa; stroke:none;" d="M441 161L442 162L441 161z"/>
<path style="fill:#48a4c9; stroke:none;" d="M565 161L566 162L565 161z"/>
<path style="fill:#6b7597; stroke:none;" d="M439 162L440 163L439 162z"/>
<path style="fill:#525c79; stroke:none;" d="M437 163L438 164L437 163z"/>
<path style="fill:#637695; stroke:none;" d="M435 164L436 165L435 164z"/>
<path style="fill:#7f93b7; stroke:none;" d="M433 165L434 166L433 165z"/>
<path style="fill:#00031c; stroke:none;" d="M429 168L429 169L436 166L429 168z"/>
<path style="fill:#48baf7; stroke:none;" d="M455 245C442.377 226.156 426.958 208.306 440.067 185C444.354 177.378 451.533 172.277 456 165C424.012 178.28 425.278 230.068 455 245z"/>
<path style="fill:#58a0c9; stroke:none;" d="M574 165L575 166L574 165z"/>
<path style="fill:#3a84ba; stroke:none;" d="M576 166L577 167L576 166z"/>
<path style="fill:#001a64; stroke:none;" d="M576 167L576 168C593.836 175.568 611.619 187.878 631 191L631 190L576 167z"/>
<path style="fill:#66778d; stroke:none;" d="M428 168L429 169L428 168z"/>
<path style="fill:#02000c; stroke:none;" d="M416 178L429 170C423.946 169.692 419.137 174.378 416 178z"/>
<path style="fill:#647c94; stroke:none;" d="M422 172L423 173L422 172z"/>
<path style="fill:#005a99; stroke:none;" d="M578 175L581 181L567 187L567 191L564 190L565 193L563 195L562 195C558.338 191.629 553.882 196.753 550 198L547 201L545 209L540 208L540 209C560.53 220.822 580.387 233.274 600 246.568C604.159 249.387 616.254 259.877 621 256L617.167 246L616.5 224L624 213C629.624 213.035 638.395 208.654 640 203L653 196L653 195L647 193C632.922 194.458 615.411 186.245 603 180.244C595 176.376 586.553 170.221 578 175z"/>
<path style="fill:#62bdd8; stroke:none;" d="M589 172L590 173L589 172z"/>
<path style="fill:#5f6e84; stroke:none;" d="M413 179L414 180L413 179z"/>
<path style="fill:#02001d; stroke:none;" d="M394 204L414 180C405.25 184.398 397.604 195.01 394 204z"/>
<path style="fill:#588eba; stroke:none;" d="M403 189L404 190L403 189z"/>
<path style="fill:#00073e; stroke:none;" d="M433 190C430.619 198.567 430.412 207.252 432 216L433 216L433 190z"/>
<path style="fill:#80b0ce; stroke:none;" d="M636.667 191.333L637.333 191.667L636.667 191.333z"/>
<path style="fill:#010548; stroke:none;" d="M641 193L641 194L645 194L641 193z"/>
<path style="fill:#56a2ce; stroke:none;" d="M647.667 193.333L648.333 193.667L647.667 193.333z"/>
<path style="fill:#6b98ca; stroke:none;" d="M399 194L400 195L399 194z"/>
<path style="fill:#002a7d; stroke:none;" d="M647 194L647 195L653 195L653 196L640 203L640 204L658 195L647 194z"/>
<path style="fill:#427aa7; stroke:none;" d="M397 197L398 198L397 197z"/>
<path style="fill:#000014; stroke:none;" d="M486 198L486 199L506 199L486 198z"/>
<path style="fill:#000010; stroke:none;" d="M435 199C435.002 212.672 437.766 226.898 449 236L450 220L449 220L447 232L446 232L438.067 215L435 199z"/>
<path style="fill:#020000; stroke:none;" d="M473 201L473 202L484 200L473 201z"/>
<path style="fill:#759cbd; stroke:none;" d="M501.667 199.333L502.333 199.667L501.667 199.333z"/>
<path style="fill:#2f587e; stroke:none;" d="M503 199L503 200L506 200L503 199z"/>
<path style="fill:#070012; stroke:none;" d="M506 199L506 200L510 200L506 199z"/>
<path style="fill:#41bfdc; stroke:none;" d="M649 199L650 200L649 199z"/>
<path style="fill:#2f6fa6; stroke:none;" d="M395 200L396 201L395 200z"/>
<path style="fill:#8797aa; stroke:none;" d="M476 201L477 202L476 201z"/>
<path style="fill:#000000; stroke:none;" d="M468 203L468 204L472 203L468 203z"/>
<path style="fill:#61a6d6; stroke:none;" d="M393 203L394 204L393 203z"/>
<path style="fill:#6e8295; stroke:none;" d="M468 204L469 205L468 204z"/>
<path style="fill:#2783bc; stroke:none;" d="M392 205L393 206L392 205z"/>
<path style="fill:#77809a; stroke:none;" d="M466 205L467 206L466 205z"/>
<path style="fill:#5a6775; stroke:none;" d="M464 206L465 207L464 206z"/>
<path style="fill:#85979e; stroke:none;" d="M461 208L462 209L461 208z"/>
<path style="fill:#4fa2c8; stroke:none;" d="M537 209L538 210L537 209z"/>
<path style="fill:#003b76; stroke:none;" d="M430 210C430.267 216.866 427.272 220.38 421 223L422 227L417 227C417.031 232.37 414.166 235.059 409 236L412 243L406 242L402 248L405 251L399 251L399 252L401 254L397 255L395 262L396 267L395 267L395 265L394 265L395 272L400.167 279L413 292L412 289L418 290L422 287L420 276L419 276L419 278L418 278L423 272L421 269L431 263L430 261C435.732 258.881 443.932 251.302 444 245L455 247L442.063 232L430 210z"/>
<path style="fill:#1a4f7f; stroke:none;" d="M435.333 210.667L435.667 211.333L435.333 210.667z"/>
<path style="fill:#6aabd1; stroke:none;" d="M541 211L542 212L541 211z"/>
<path style="fill:#00427d; stroke:none;" d="M388 213L385 233L386 233L390 213L388 213z"/>
<path style="fill:#002975; stroke:none;" d="M624 213C612.275 226.836 616.737 240.397 619 257L620 257L617.855 226L626 213L624 213z"/>
<path style="fill:#58c0e6; stroke:none;" d="M547 214L548 215L547 214z"/>
<path style="fill:#55b5d7; stroke:none;" d="M549 215L550 216L549 215z"/>
<path style="fill:#010c30; stroke:none;" d="M386 218C374.437 247.903 373.667 280.236 386 310L387 310L378.06 266L382 233L383 233L384 254L385 254L384.197 233L386 218z"/>
<path style="fill:#76a5cc; stroke:none;" d="M385 219L386 220L385 219z"/>
<path style="fill:#55aecd; stroke:none;" d="M556 219L557 220L556 219z"/>
<path style="fill:#4f5f7a; stroke:none;" d="M450 220L451 221L450 220z"/>
<path style="fill:#63acd3; stroke:none;" d="M561 222L562 223L561 222z"/>
<path style="fill:#5d728b; stroke:none;" d="M448 226L448 231L449 231L448 226z"/>
<path style="fill:#5da2d1; stroke:none;" d="M572 229L573 230L572 229z"/>
<path style="fill:#5cb4d6; stroke:none;" d="M575 231L576 232L575 231z"/>
<path style="fill:#20bbf9; stroke:none;" d="M384 232L384 248L385 248L384 232z"/>
<path style="fill:#00508e; stroke:none;" d="M382 233C377.538 265.729 377.243 294.212 394 324C398.418 325.692 399.588 330.463 402.371 334C406.534 339.291 411.875 344.193 417 348.54C437.056 365.554 462.736 383.09 488 391L484 388L490 376L491 376L494 378L496 373L499 374L501 367L500 370L507 368L507 367L504 367L504 366L513 362C481.338 336.345 441.431 323.203 412 293.997C400.65 282.733 388.698 269.36 386 253L384 254L382 233z"/>
<path style="fill:#48a6d5; stroke:none;" d="M578 233L579 234L578 233z"/>
<path style="fill:#00307a; stroke:none;" d="M579 233C586.02 241.09 599.014 249.159 609 253C601.884 245.069 588.886 236.963 579 233z"/>
<path style="fill:#7c8593; stroke:none;" d="M449 235L450 236L449 235z"/>
<path style="fill:#051a41; stroke:none;" d="M449.333 236.667L449.667 237.333L449.333 236.667z"/>
<path style="fill:#94cad8; stroke:none;" d="M617 236L617 239L618 239L617 236z"/>
<path style="fill:#082251; stroke:none;" d="M450 238L451 239L450 238z"/>
<path style="fill:#045fb0; stroke:none;" d="M451 239L457 245L451 239z"/>
<path style="fill:#2b60a1; stroke:none;" d="M378.333 243.667L378.667 244.333L378.333 243.667z"/>
<path style="fill:#004d8c; stroke:none;" d="M444 245C443.555 251.254 435.202 258.066 430 261L431 263L421 269L423 272L418 278L419 278L419 276L420 276L422 287L418 290L412 289C416.478 299.768 431.364 310.647 442 315L438 312C442.187 308.771 443.094 307.268 443 302L446 302L445 297L447 292L448 292L448 297L452 297L449 292L453 289L451 282L454 279L451 279L451 277L454 278L455 274L452 271L454 270L457 271L455 267L458 264L458 263L455 263L455 262L458 258L461 257L459 254L463 253C458.038 247.209 451.633 244.033 444 245z"/>
<path style="fill:#2998dc; stroke:none;" d="M455 245C458.446 250.414 465.007 254.854 471 257L471 256L468 252L455 245z"/>
<path style="fill:#4fbbf9; stroke:none;" d="M385 247C385.913 278.404 418.322 302.88 442 318.665C469.659 337.105 499.267 352.879 528 369.568C558.788 387.449 587.813 405.497 606 437L607 437C605.021 427.065 597.623 418.243 590.885 411C573.951 392.795 551.292 380.091 530 367.709C486.859 342.62 433.502 319.761 401.686 280C393.336 269.565 390.761 258.484 385 247z"/>
<path style="fill:#8dafd2; stroke:none;" d="M377.333 249.667L377.667 250.333L377.333 249.667z"/>
<path style="fill:#004294; stroke:none;" d="M463 250L466 252L463 250z"/>
<path style="fill:#3b6499; stroke:none;" d="M377.333 251.667L377.667 252.333L377.333 251.667z"/>
<path style="fill:#68a9d3; stroke:none;" d="M605 251L606 252L605 251z"/>
<path style="fill:#066eaf; stroke:none;" d="M459 254L461 257L458 258L455 262L455 263L458 263L458 264L456 265L455 267L457 271L454 270L452 271L455 274L454 278L451 277L454 279L451 282L453 289L449 292L452 297L448 297L448 292L447 292L445 297L446 302L443 302L438 312C460.044 328.843 489.339 349.819 517 351L514 349L514 348L520 343L525 344L530 337L529 333L537 333L535 329L538 326L541 328L542 324L544 326L545 323L547 324L549 320L553 320L550 314L556 318L555 312L558 311L558 313L567 312L564 308L601 330L601 327L583 318L584 316L474 260L474 259L480 261L480 260L467 253L467 254L471 256L459 254z"/>
<path style="fill:#002370; stroke:none;" d="M609 253L609 254L622 261L609 253z"/>
<path style="fill:#329ad7; stroke:none;" d="M474 259L474 260L486 266L474 259z"/>
<path style="fill:#000b37; stroke:none;" d="M390 260L394 270L395 270L390 260z"/>
<path style="fill:#1354a4; stroke:none;" d="M485 264L485 265L498 271L498 270L485 264z"/>
<path style="fill:#208fc8; stroke:none;" d="M486 266L486 267L503 275L503 274L486 266z"/>
<path style="fill:#00053a; stroke:none;" d="M396 271L399 276L396 271z"/>
<path style="fill:#003a83; stroke:none;" d="M500.667 272.333L501.333 272.667L500.667 272.333z"/>
<path style="fill:#004897; stroke:none;" d="M502 273L502 274L543 294L543 293L502 273z"/>
<path style="fill:#9bcae6; stroke:none;" d="M377.333 278.667L377.667 279.333L377.333 278.667z"/>
<path style="fill:#3298d9; stroke:none;" d="M511 279L511 280L517 282L517 281L511 279z"/>
<path style="fill:#0052a1; stroke:none;" d="M545 295L545 296L556 301L556 300L545 295z"/>
<path style="fill:#004090; stroke:none;" d="M556 301L556 302L563 305L563 304L556 301z"/>
<path style="fill:#004a88; stroke:none;" d="M564 308L567 312L558 313L558 311L555 312L556 318L550 314L553 320L549 320L547 324L545 323L544 326L542 324L541 328L538 326L535 329L537 333L529 333L530 337L525 344L520 343L514 348L514 349L517 351L505 350.951L478 337L478 338C502.45 352.902 527.703 366.408 552 381.57C558.288 385.494 570.321 397.524 578 394L579 397L583 395L584 398L592 395L592 393L594 394L595 390L596 392L597 392L602 391L603 391L607 388L607 387L604 387L604 386C606.993 385.936 608.346 386.054 609 383L614 385L619 382L621 384L621 379L626 380L626 379L623 376L626 377L631 374L631 378L632 378L638 376L633 367L633 363C637.75 362.186 630.148 353.87 628.583 352C621.467 343.495 610.927 331.277 600 328L601 330L600 330L564 308z"/>
<path style="fill:#5c9ab7; stroke:none;" d="M386 310L387 311L386 310z"/>
<path style="fill:#679dbd; stroke:none;" d="M387 312L388 313L387 312z"/>
<path style="fill:#60aac8; stroke:none;" d="M388 314L389 315L388 314z"/>
<path style="fill:#003285; stroke:none;" d="M583 317L583 318L587 319L587 318L583 317z"/>
<path style="fill:#6399bd; stroke:none;" d="M391 319L392 320L391 319z"/>
<path style="fill:#5193c5; stroke:none;" d="M393 322L394 323L393 322z"/>
<path style="fill:#6caed0; stroke:none;" d="M593 322L594 323L593 322z"/>
<path style="fill:#00134d; stroke:none;" d="M395 323L400 330L395 323z"/>
<path style="fill:#60a7df; stroke:none;" d="M596 324L597 325L596 324z"/>
<path style="fill:#6bafce; stroke:none;" d="M399 330L400 331L399 330z"/>
<path style="fill:#66b9e2; stroke:none;" d="M418 349L419 350L418 349z"/>
<path style="fill:#5aadd2; stroke:none;" d="M423 353L424 354L423 353z"/>
<path style="fill:#59a4d0; stroke:none;" d="M427 356L428 357L427 356z"/>
<path style="fill:#0078b4; stroke:none;" d="M630 357L632 360L630 357z"/>
<path style="fill:#002d64; stroke:none;" d="M509 359L509 360L513 362L504 366L504 367L507 367L507 368L500 370L501 367L498 368L499 374L496 373L494 378L491 376L490 376L484 388L488 391L475 385L475 386L537 419.203L566 438L567 433L570 434L576 429L579 431L579 427L584 427L584 426L581 426L581 425L584 425L583 422C591.879 421.397 592.107 423.248 599 428C595.984 418.301 586.685 408.739 579 402.389C576.071 399.969 567.501 396.422 567 393L533.027 373.362L509 359z"/>
<path style="fill:#002c62; stroke:none;" d="M635 362L633 363L633 367L638 376L632 378L631 378L631 374L623 376L626 379L626 380L621 379L621 384L618 384L619 382C616.073 382.29 614.611 381.895 614 385L609 383L604 386L604 387L607 387L607 388L603 391L602 391C600.366 388.185 597.608 388.912 597 392L596 392L595 390L594 394L592 395L584 398L583 395L579 397L578 394L572 394C581.782 405.178 594.353 410.464 601 425L603 424L615 457L616 457L615 450L616 450C617.69 452.314 623.435 453.391 624 450L628 451L627 448L629 446L630 446L631 450C635.736 447.186 641.703 447.071 643 441L646 443L651 444L652 401L651 401L651 403L650 403C648.184 389.688 644.679 371.849 635 362z"/>
<path style="fill:#54aed0; stroke:none;" d="M437 363L438 364L437 363z"/>
<path style="fill:#6aa2c6; stroke:none;" d="M638 366L639 367L638 366z"/>
<path style="fill:#00144a; stroke:none;" d="M528 370L528 371L540 377L540 376L528 370z"/>
<path style="fill:#4eafdd; stroke:none;" d="M644 378L645 379L644 378z"/>
<path style="fill:#000635; stroke:none;" d="M644 380L650 403L651 403C650.6 395.45 648.896 385.949 644 380z"/>
<path style="fill:#57abd7; stroke:none;" d="M479 388L480 389L479 388z"/>
<path style="fill:#53b7da; stroke:none;" d="M488 393L489 394L488 393z"/>
<path style="fill:#010026; stroke:none;" d="M566 394L569 396L566 394z"/>
<path style="fill:#679ac1; stroke:none;" d="M650 397L651 398L650 397z"/>
<path style="fill:#000f44; stroke:none;" d="M577 398L582 402L577 398z"/>
<path style="fill:#44a3d5; stroke:none;" d="M499 399L500 400L499 399z"/>
<path style="fill:#000e3a; stroke:none;" d="M582 402L599 420C595.591 412.806 589.138 405.586 582 402z"/>
<path style="fill:#4089bc; stroke:none;" d="M508 404L509 405L508 404z"/>
<path style="fill:#000731; stroke:none;" d="M511 405L511 406L552 429C543.109 419.098 523.676 408.969 511 405z"/>
<path style="fill:#3e5d82; stroke:none;" d="M652.333 407.667L652.667 408.333L652.333 407.667z"/>
<path style="fill:#68a4c9; stroke:none;" d="M515 408L516 409L515 408z"/>
<path style="fill:#030000; stroke:none;" d="M652 411C652 427.083 652.219 442.486 647.233 458C644.411 466.78 638.915 474.35 636 483L637 483C648.726 465.024 660.04 432.514 652 411z"/>
<path style="fill:#498abd; stroke:none;" d="M524 413L525 414L524 413z"/>
<path style="fill:#000119; stroke:none;" d="M591 415L596 421L591 415z"/>
<path style="fill:#7baabe; stroke:none;" d="M653 415L653 432L654 432L653 415z"/>
<path style="fill:#4fb7d8; stroke:none;" d="M531 417L532 418L531 417z"/>
<path style="fill:#00143b; stroke:none;" d="M583 422L581 425L581 426L584 426L584 427L579 427L579 431L576 429L570 434L567 433C565.526 439.66 570.538 442.663 573.624 448C578.688 456.758 582.859 465.763 583 476L584 476L584 472L585 472C585 490.927 580.373 511.245 565.94 524.793C559.382 530.948 551.401 534.214 544 539C550.083 540.089 556.093 537.553 562 536.192C578.344 532.427 596.792 524.271 610 513.508C615.864 508.73 622.519 497.608 629 495C636.621 483.61 644.046 470.293 647.832 457C649.105 452.529 653.057 443.39 646 443L643 441L631 450L630 446L629 446L627 448L628 451L624 450C624 453.924 617.647 452.022 616 450L615 450L616 457L615 457C613.25 444.87 608.681 434.734 603 424L602 424C604.889 435.435 611.712 444.946 613.54 457C617.285 481.685 603.829 511.654 583 525C595.411 513.67 605.872 500.825 609.729 484C611.608 475.806 610.896 466.453 612 458C609.269 458 608.149 445.384 606.833 442C604.453 435.88 598.677 422.601 592 420.833C588.943 420.024 586.116 421.918 583 422z"/>
<path style="fill:#377ec3; stroke:none;" d="M538 421L539 422L538 421z"/>
<path style="fill:#000010; stroke:none;" d="M596 421C600.528 434.272 609.569 444.186 610 459L611 459C610.973 445.703 605.789 430.379 596 421z"/>
<path style="fill:#001966; stroke:none;" d="M393 424L395 431L396 431L395 427L427 443L427 442L393 424z"/>
<path style="fill:#497ba8; stroke:none;" d="M543 424L544 425L543 424z"/>
<path style="fill:#004480; stroke:none;" d="M395 427C396.276 437.282 402.245 451.82 398.797 462C395.067 473.012 377.479 479.894 368 485L368 486L375 487L374 489L409 498L408 496L409 496L415 494L417 479L420 481L421 477L424 477L426 467L430 468L431 462C432.962 461.653 436.453 460.846 434 459L434 458L438 458L438 457L436 456L444 456L444 453C429.183 444.381 412.023 430.383 395 427z"/>
<path style="fill:#4f7ca1; stroke:none;" d="M551 429L552 430L551 429z"/>
<path style="fill:#4281ab; stroke:none;" d="M554 431L555 432L554 431z"/>
<path style="fill:#54a1d2; stroke:none;" d="M412 433L413 434L412 433z"/>
<path style="fill:#6e9dbe; stroke:none;" d="M558 434L559 435L558 434z"/>
<path style="fill:#1caaf3; stroke:none;" d="M607 436L612 461L613 461C612.995 452.457 612.112 443.16 607 436z"/>
<path style="fill:#50689b; stroke:none;" d="M562 437L563 438L562 437z"/>
<path style="fill:#000210; stroke:none;" d="M564 438L574 448L564 438z"/>
<path style="fill:#6d89a5; stroke:none;" d="M652.333 440.667L652.667 441.333L652.333 440.667z"/>
<path style="fill:#569ec7; stroke:none;" d="M430 444L431 445L430 444z"/>
<path style="fill:#6ca7c2; stroke:none;" d="M398 446L398 449L399 449L398 446z"/>
<path style="fill:#5292d1; stroke:none;" d="M433 446L434 447L433 446z"/>
<path style="fill:#8a9ba7; stroke:none;" d="M573 448L574 449L573 448z"/>
<path style="fill:#3fa2c4; stroke:none;" d="M439 450L440 451L439 450z"/>
<path style="fill:#58b0da; stroke:none;" d="M442 452L443 453L442 452z"/>
<path style="fill:#002d64; stroke:none;" d="M443 454L444 456L443 456L438 457L438 458L434 458L434 459L436 460L431 462L430 468L426 467L424 477L423 478L421 477L420 481L417 479L415 494L408 496L409 498L408 498L405 497C411.542 506.075 432.398 516.427 443 520L446 518C445.9 515.209 449.551 511.049 451 515C455.08 513.222 456.69 511.519 456 507L459 506L457 503L462 504L463 504L462 500L465 497L468 498L467 493L467 492L472 489L489 485L489 484L485 483L486 481L443 454z"/>
<path style="fill:#0f5082; stroke:none;" d="M611 455L611 458L612 458L611 455z"/>
<path style="fill:#1289d9; stroke:none;" d="M613 456L611 481L612 481C613.382 473.416 615.771 463.415 613 456z"/>
<path style="fill:#4f9acf; stroke:none;" d="M578 457L579 458L578 457z"/>
<path style="fill:#00256a; stroke:none;" d="M399 458C393.607 472.835 375.686 478.695 363 486L363 487L371 487L371 486L368 486L368 485C376.904 481.576 402.391 470.143 399 458z"/>
<path style="fill:#5094be; stroke:none;" d="M452 459L453 460L452 459z"/>
<path style="fill:#1fa6f9; stroke:none;" d="M579 459L582 488L583 488C585.279 479.622 584.042 466.224 579 459z"/>
<path style="fill:#62c2e3; stroke:none;" d="M455 461L456 462L455 461z"/>
<path style="fill:#000008; stroke:none;" d="M611 461L610 478L611 478L611 461z"/>
<path style="fill:#000000; stroke:none;" d="M579 462C576.161 485.236 545.123 495.813 525 493.8C516.092 492.91 507.775 489.401 499 488L499 489C521.303 496.108 544.496 498.991 565 485.225C571.845 480.629 582.276 471.306 579 462z"/>
<path style="fill:#7a8598; stroke:none;" d="M646 464L647 465L646 464z"/>
<path style="fill:#47a5d2; stroke:none;" d="M462 466L463 467L462 466z"/>
<path style="fill:#001b47; stroke:none;" d="M580 466C570.093 489.114 542.582 498.632 519 494.187C509.035 492.309 498.938 486.087 489 485.332C483.335 484.902 477.762 488.673 472 489L467 492L467 493L468 498L465 497L462 500L463 504L462 504L457 503L459 506L456 507C456.278 511.425 454.75 512.831 451 515L450 512L446 518L442 518C446.76 525.271 457.243 528.26 465 531.39C488.259 540.777 510.108 543.265 535 540C535 536.097 554.947 530.31 559 527.833C573.781 518.8 580 496.351 580 480C580 476.207 581.908 468.623 580 466z"/>
<path style="fill:#5ca7d9; stroke:none;" d="M465 468L466 469L465 468z"/>
<path style="fill:#51aad5; stroke:none;" d="M468 470L469 471L468 470z"/>
<path style="fill:#000001; stroke:none;" d="M580 470C580 487.45 576.102 498.956 570 515C579.517 506.354 585.87 481.894 580 470z"/>
<path style="fill:#329edb; stroke:none;" d="M471 472L472 473L471 472z"/>
<path style="fill:#010003; stroke:none;" d="M584 472L584 490L585 490L584 472z"/>
<path style="fill:#005390; stroke:none;" d="M611 472L611 476L612 476L611 472z"/>
<path style="fill:#337eb9; stroke:none;" d="M474 474L475 475L474 474z"/>
<path style="fill:#439fcc; stroke:none;" d="M382 475L383 476L382 475z"/>
<path style="fill:#59bfe2; stroke:none;" d="M380 476L381 477L380 476z"/>
<path style="fill:#51a3cf; stroke:none;" d="M479 477L480 478L479 477z"/>
<path style="fill:#5fc4db; stroke:none;" d="M373 480L374 481L373 480z"/>
<path style="fill:#1c77a7; stroke:none;" d="M484 480L485 481L484 480z"/>
<path style="fill:#034c94; stroke:none;" d="M610 480C608.02 499.226 594.181 510.98 583 525C595.043 519.58 603.51 505.931 608.179 494C609.902 489.599 612.441 484.392 610 480z"/>
<path style="fill:#3a84b6; stroke:none;" d="M486 481L487 482L486 481z"/>
<path style="fill:#00082f; stroke:none;" d="M485 482L485 483L499 488L499 487L485 482z"/>
<path style="fill:#3f94be; stroke:none;" d="M490 483L491 484L490 483z"/>
<path style="fill:#105a8d; stroke:none;" d="M581 483L581 488L582 488L581 483z"/>
<path style="fill:#58667b; stroke:none;" d="M636 483L637 484L636 483z"/>
<path style="fill:#3779b5; stroke:none;" d="M492 484L493 485L492 484z"/>
<path style="fill:#235291; stroke:none;" d="M369.667 487.333L370.333 487.667L369.667 487.333z"/>
<path style="fill:#050044; stroke:none;" d="M371 487L371 488L375 488L371 487z"/>
<path style="fill:#44759f; stroke:none;" d="M499 487L500 488L499 487z"/>
<path style="fill:#0a4681; stroke:none;" d="M583 487L583 490L584 490L583 487z"/>
<path style="fill:#148cd8; stroke:none;" d="M581 488L579 504L583 488L581 488z"/>
<path style="fill:#00002f; stroke:none;" d="M380 489L380 490C405.834 498.45 426.933 514.697 451 526.751C462.289 532.405 475.151 538.817 488 539L488 538C447.754 532.172 419.422 494.767 380 489z"/>
<path style="fill:#678ca8; stroke:none;" d="M505 489L506 490L505 489z"/>
<path style="fill:#5d7ba4; stroke:none;" d="M512 491L513 492L512 491z"/>
<path style="fill:#676e84; stroke:none;" d="M539.667 493.333L540.333 493.667L539.667 493.333z"/>
<path style="fill:#7f838d; stroke:none;" d="M629 493L630 494L629 493z"/>
<path style="fill:#000000; stroke:none;" d="M627 494L625 498L627 494z"/>
<path style="fill:#63acd9; stroke:none;" d="M395 495L396 496L395 495z"/>
<path style="fill:#8090a4; stroke:none;" d="M624 499L625 500L624 499z"/>
<path style="fill:#086bba; stroke:none;" d="M577 502C566.818 535.519 530.99 542 501 542L501 543C524.718 543 547.202 542.585 565.94 525.667C570.941 521.152 582.211 508.804 577 502z"/>
<path style="fill:#5a96b9; stroke:none;" d="M416 506L417 507L416 506z"/>
<path style="fill:#78839a; stroke:none;" d="M616 507L617 508L616 507z"/>
<path style="fill:#8393aa; stroke:none;" d="M615 508L616 509L615 508z"/>
<path style="fill:#4a83a9; stroke:none;" d="M421 509L422 510L421 509z"/>
<path style="fill:#8e929c; stroke:none;" d="M608 514L609 515L608 514z"/>
<path style="fill:#6aa8dc; stroke:none;" d="M434 517L435 518L434 517z"/>
<path style="fill:#8593a9; stroke:none;" d="M604 517L605 518L604 517z"/>
<path style="fill:#666c82; stroke:none;" d="M601 519L602 520L601 519z"/>
<path style="fill:#4f88ba; stroke:none;" d="M441 521L442 522L441 521z"/>
<path style="fill:#6b707f; stroke:none;" d="M598 521L599 522L598 521z"/>
<path style="fill:#000003; stroke:none;" d="M572 533L572 534L595 524L572 533z"/>
<path style="fill:#5c98c9; stroke:none;" d="M450 526L451 527L450 526z"/>
<path style="fill:#65a9d4; stroke:none;" d="M452 527L453 528L452 527z"/>
<path style="fill:#01000b; stroke:none;" d="M534 538L534 539L556 530L534 538z"/>
<path style="fill:#5c6183; stroke:none;" d="M579 531L580 532L579 531z"/>
<path style="fill:#040001; stroke:none;" d="M528 542L528 543L568 536L528 542z"/>
<path style="fill:#5079a4; stroke:none;" d="M562 537L563 538L562 537z"/>
<path style="fill:#10407a; stroke:none;" d="M485 539L485 540L488 540L485 539z"/>
<path style="fill:#2a619c; stroke:none;" d="M489.667 540.333L490.333 540.667L489.667 540.333z"/>
<path style="fill:#487ab3; stroke:none;" d="M494.667 541.333L495.333 541.667L494.667 541.333z"/>
<path style="fill:#04000e; stroke:none;" d="M500 541L500 542L522 542L500 541z"/>
<path style="fill:#5c7390; stroke:none;" d="M543 541L543 542L546 542L543 541z"/>
<path style="fill:#71c2ea; stroke:none;" d="M499.667 542.333L500.333 542.667L499.667 542.333z"/>
<path style="fill:#777e83; stroke:none;" d="M535.667 542.333L536.333 542.667L535.667 542.333z"/>
<path style="fill:#5286b0; stroke:none;" d="M507 543L507 544L524 544L507 543z"/>
<path style="fill:#bfb8c0; stroke:none;" d="M524 543L524 544L529 544L524 543z"/>
<path style="fill:#4e4d6a; stroke:none;" d="M239.667 605.333L240.333 605.667L239.667 605.333z"/>
<path style="fill:#000000; stroke:none;" d="M214 654L215 654C213.177 647.986 210.124 642.493 210.315 636C210.902 615.977 232.908 604.534 251 606.198C260.532 607.075 268.076 611.29 277 614C250.107 588.279 192.075 615.531 214 654z"/>
<path style="fill:#828e9f; stroke:none;" d="M255 605L255 606L258 606L255 605z"/>
<path style="fill:#6f7481; stroke:none;" d="M234 606L235 607L234 606z"/>
<path style="fill:#001b48; stroke:none;" d="M206 699L206 700C227.83 716.412 279.991 723.673 284.684 687C285.225 682.775 285.291 678.141 284.198 674C277.361 648.101 247.018 659.071 233.494 642.854C226.343 634.28 234.952 624.616 244 622.868C255.116 620.721 264.812 626.831 274 632L277 624L280 624C285.262 614.143 269.614 609.817 262 607.919C245.731 603.862 225.043 606.233 214.72 621.001C207.934 630.708 208.484 650.048 218.286 657.923C225.986 664.109 237.838 665.533 247 668.358C254.168 670.568 267.76 674.792 265.199 685C261.371 700.264 240.691 697.89 230 693.37C226.424 691.857 222.072 688.017 218.115 687.987C213.427 687.951 208.91 695.928 206 699z"/>
<path style="fill:#7f8898; stroke:none;" d="M261 606L262 607L261 606z"/>
<path style="fill:#cad1de; stroke:none;" d="M371 606L371 607L397 608C392.217 603.262 377.523 606 371 606z"/>
<path style="fill:#000002; stroke:none;" d="M293 607L296 613L297 613L295 608L315.734 609.15L330 631L325.6 620L317.425 608.15L293 607z"/>
<path style="fill:#000000; stroke:none;" d="M365 618L366 618C373.298 606.037 381.01 608 394 608L392 613L393 613L396 607C383.188 607 369.625 603.232 365 618z"/>
<path style="fill:#9eabc1; stroke:none;" d="M411 607L411 713L412 713L412 640L411 607z"/>
<path style="fill:#000000; stroke:none;" d="M412 607L412 713L434 713C429.266 692.013 433 666.51 433 645L432 645L432 712L413 712L413 608C422.325 608 429.379 607.064 437 613C433.053 603.975 420.302 607 412 607M484 607L484 676L485 676L485 608L506 608L484 607M524 607L524 625L556 625L557 713L578 713L578 625L610 625L610 607L524 607z"/>
<path style="fill:#010002; stroke:none;" d="M628 607L628 713L650 713L650 712L629 712L629 608C651.552 608 672.076 607.743 694 613C679.458 600.736 645.86 607 628 607z"/>
<path style="fill:#6f7f8a; stroke:none;" d="M678.667 607.333L679.333 607.667L678.667 607.333z"/>
<path style="fill:#000000; stroke:none;" d="M728 710L729 710L753.465 647L768 608L791 608L794 618L795 618L792 607C786.003 607 772.72 604.492 767.775 608.15C761.917 612.482 758.832 628.256 756.316 635C747.395 658.908 732.15 684.837 728 710z"/>
<path style="fill:#656272; stroke:none;" d="M228 608L229 609L228 608z"/>
<path style="fill:#7f888f; stroke:none;" d="M293 608L294 609L293 608z"/>
<path style="fill:#001b49; stroke:none;" d="M295 608L333.324 672.115L334 712L354 712L354.775 672L368.674 650.885L394 608L372.431 608.717L363.147 622L345 654L325.2 622L316.552 609.15L295 608z"/>
<path style="fill:#5d6b71; stroke:none;" d="M318 608L319 609L318 608z"/>
<path style="fill:#7b8da1; stroke:none;" d="M395 608L396 609L395 608z"/>
<path style="fill:#001c49; stroke:none;" d="M413 608L413 712L432 712C432 690.49 428.266 664.987 433 644L434 644L435 647L443 658C448.718 660.23 456.456 673.123 458 679C462.597 680.674 464.812 685.477 466 690L483.333 710.283L504 712L504 608L485 608L485 679L445.239 624.804L432.694 609.123L413 608z"/>
<path style="fill:#000324; stroke:none;" d="M504 608L504 712C493.739 712 487.206 712.661 479 706C483.335 716.211 496.708 713 506 713L506 608L504 608z"/>
<path style="fill:#001c49; stroke:none;" d="M526 608L526 624C533.052 624 549.956 620.907 555.479 625.717C560.3 629.916 558 642.246 558 648L558 712L577 712L577 624L609 624L609 608L526 608z"/>
<path style="fill:#001b48; stroke:none;" d="M629 608L629 712L648 712L648 685L650.412 675.15L667 674L681.931 700L689.259 711.283L711 712C705.824 702.391 700.125 693.429 694.716 684C693.034 681.069 689.265 676.74 689.492 673.185C689.818 668.086 700.208 666.691 702.995 662.798C710.788 651.914 710.675 631.08 703.031 620.097C699.316 614.759 691.014 611.781 685 610.06C667.671 605.098 646.884 608 629 608z"/>
<path style="fill:#6a7686; stroke:none;" d="M684 608L685 609L684 608z"/>
<path style="fill:#001b48; stroke:none;" d="M768 608L728 712C733.145 712 744.141 714.084 748.109 710.283C753.919 704.719 751.805 692.459 759.188 688.15C766.823 683.693 786.231 686.513 794.989 687.042C806.133 687.715 803.908 703.866 810.142 710.283C813.966 714.219 825.873 712 831 712L791 608L768 608z"/>
<path style="fill:#8a93a2; stroke:none;" d="M690 610L691 611L690 610z"/>
<path style="fill:#959599; stroke:none;" d="M222 611L223 612L222 611z"/>
<path style="fill:#7c7d8d; stroke:none;" d="M437 612L438 613L437 612z"/>
<path style="fill:#7b818b; stroke:none;" d="M321 613L322 614L321 613z"/>
<path style="fill:#050000; stroke:none;" d="M391 613L390 616L391 613z"/>
<path style="fill:#000000; stroke:none;" d="M694 613L698 616L694 613z"/>
<path style="fill:#83909f; stroke:none;" d="M217 615L218 616L217 615z"/>
<path style="fill:#575f6c; stroke:none;" d="M698 615L699 616L698 615z"/>
<path style="fill:#7c7c86; stroke:none;" d="M216 616L217 617L216 616z"/>
<path style="fill:#6c6d74; stroke:none;" d="M298 616L299 617L298 616z"/>
<path style="fill:#000707; stroke:none;" d="M389 616L380 632L381 632L389 616z"/>
<path style="fill:#8a8a9b; stroke:none;" d="M390 616L391 617L390 616z"/>
<path style="fill:#7c839a; stroke:none;" d="M282 617L283 618L282 617z"/>
<path style="fill:#778396; stroke:none;" d="M364 617L365 618L364 617z"/>
<path style="fill:#00010f; stroke:none;" d="M440 617L444 623L440 617z"/>
<path style="fill:#586470; stroke:none;" d="M795 617L796 618L795 617z"/>
<path style="fill:#63626b; stroke:none;" d="M283 618L284 619L283 618z"/>
<path style="fill:#010001; stroke:none;" d="M364 618L354 637L355 637L364 618z"/>
<path style="fill:#020004; stroke:none;" d="M795 618L805 646L806 646C804.537 637.131 800.235 625.325 795 618z"/>
<path style="fill:#707681; stroke:none;" d="M762 619L763 620L762 619z"/>
<path style="fill:#818eac; stroke:none;" d="M281 621L282 622L281 621z"/>
<path style="fill:#030000; stroke:none;" d="M302 621L304 624L302 621z"/>
<path style="fill:#020519; stroke:none;" d="M271 657L271 656C260.573 651.719 241.82 650.971 234.521 641.854C229.126 635.116 234.956 627.122 242 624.865C252.107 621.628 260.724 627.188 270 630C260.88 621.278 224.326 617.34 230.876 638.997C234.423 650.723 260.41 654.917 271 657z"/>
<path style="fill:#6a7889; stroke:none;" d="M444 622L445 623L444 622z"/>
<path style="fill:#808a96; stroke:none;" d="M797 622L798 623L797 622z"/>
<path style="fill:#070001; stroke:none;" d="M278 623L277 626L278 623z"/>
<path style="fill:#000000; stroke:none;" d="M444 623L447 627L444 623z"/>
<path style="fill:#333e51; stroke:none;" d="M254.667 624.333L255.333 624.667L254.667 624.333z"/>
<path style="fill:#5a6371; stroke:none;" d="M303 624L304 625L303 624z"/>
<path style="fill:#8f9aa7; stroke:none;" d="M385 624L386 625L385 624z"/>
<path style="fill:#000000; stroke:none;" d="M649 624L649 625L681 628C673.367 621.115 658.629 624 649 624M705 624C707.729 638.464 708.269 646.738 704 661L705 661C710.921 650.323 712.834 634.282 705 624z"/>
<path style="fill:#7f93a9; stroke:none;" d="M760 624L761 625L760 624z"/>
<path style="fill:#8594b0; stroke:none;" d="M524 625L524 626L556 626L524 625z"/>
<path style="fill:#8694af; stroke:none;" d="M578 625L578 626L610 626L578 625z"/>
<path style="fill:#9ba9ba; stroke:none;" d="M650 625L650 626L673 626L650 625z"/>
<path style="fill:#fefefe; stroke:none;" d="M650 626L650 657C658.792 657 672.146 659.479 679.969 654.83C689.78 648.998 689.239 632.687 678.989 627.648C671.061 623.751 658.637 626 650 626z"/>
<path style="fill:#8c8e98; stroke:none;" d="M676 626L677 627L676 626z"/>
<path style="fill:#839eb5; stroke:none;" d="M799 627L800 628L799 627z"/>
<path style="fill:#000003; stroke:none;" d="M681 628C682.891 630.868 685.228 633.68 686.271 637C693.233 659.154 662.893 658 650 658L650 659C659.516 659 672.542 661.259 680.969 655.922C690.331 649.993 691.01 633.4 681 628z"/>
<path style="fill:#8f9caa; stroke:none;" d="M306 629L307 630L306 629z"/>
<path style="fill:#030000; stroke:none;" d="M307 629L309 632L307 629z"/>
<path style="fill:#74777f; stroke:none;" d="M449 629L450 630L449 629z"/>
<path style="fill:#61686e; stroke:none;" d="M269 630L270 631L269 630z"/>
<path style="fill:#010000; stroke:none;" d="M270 630L273 633L270 630z"/>
<path style="fill:#879faa; stroke:none;" d="M274 630L275 631L274 630z"/>
<path style="fill:#5c686e; stroke:none;" d="M331 630L332 631L331 630z"/>
<path style="fill:#000004; stroke:none;" d="M449 630L452 634L449 630z"/>
<path style="fill:#8993a9; stroke:none;" d="M708 630L709 631L708 630z"/>
<path style="fill:#00000d; stroke:none;" d="M778 630L766 665L767 665L779 631L780 631L794 670L795 670L781 630L778 630z"/>
<path style="fill:#e1e8f1; stroke:none;" d="M578 631L578 713L579 713L579 657L578 631z"/>
<path style="fill:#fefefe; stroke:none;" d="M779 631L765 671L794 671L779 631z"/>
<path style="fill:#69737f; stroke:none;" d="M308 632L309 633L308 632z"/>
<path style="fill:#000000; stroke:none;" d="M309 632L311 637L312 637L309 632z"/>
<path style="fill:#8690a0; stroke:none;" d="M801 632L802 633L801 632z"/>
<path style="fill:#000000; stroke:none;" d="M377 635L373 643L374 643L377 635z"/>
<path style="fill:#909aa3; stroke:none;" d="M378 635L379 636L378 635z"/>
<path style="fill:#030005; stroke:none;" d="M334 636L340 648L341 648L334 636z"/>
<path style="fill:#677180; stroke:none;" d="M781 636L782 637L781 636z"/>
<path style="fill:#000000; stroke:none;" d="M454 637L456 640L454 637z"/>
<path style="fill:#8e95a1; stroke:none;" d="M755 637L756 638L755 637z"/>
<path style="fill:#5a6576; stroke:none;" d="M352 638L353 639L352 638z"/>
<path style="fill:#00030d; stroke:none;" d="M352 639L349 646L350 646L352 639z"/>
<path style="fill:#5c636a; stroke:none;" d="M456 639L457 640L456 639z"/>
<path style="fill:#6e7681; stroke:none;" d="M313 640L314 641L313 640z"/>
<path style="fill:#00000b; stroke:none;" d="M456 640L461 647L456 640z"/>
<path style="fill:#777e8d; stroke:none;" d="M775 641L776 642L775 641z"/>
<path style="fill:#182750; stroke:none;" d="M556 642L556 654L557 654L556 642z"/>
<path style="fill:#000000; stroke:none;" d="M372 643L371 646L372 643z"/>
<path style="fill:#676971; stroke:none;" d="M348 645L349 646L348 645z"/>
<path style="fill:#5c687d; stroke:none;" d="M806 645L807 646L806 645z"/>
<path style="fill:#00031a; stroke:none;" d="M348 646L345 652L344 652L342 648L341 648L344 654L345 654L348 646z"/>
<path style="fill:#8e95a3; stroke:none;" d="M371 646L372 647L371 646z"/>
<path style="fill:#000000; stroke:none;" d="M436 646L441 653L436 646z"/>
<path style="fill:#768192; stroke:none;" d="M461 646L462 647L461 646z"/>
<path style="fill:#87949f; stroke:none;" d="M686 646L687 647L686 646z"/>
<path style="fill:#010004; stroke:none;" d="M806 646C809.547 667.51 822.08 689.716 830 710L831 710L818.056 675L806 646z"/>
<path style="fill:#6d7589; stroke:none;" d="M341 647L342 648L341 647z"/>
<path style="fill:#020203; stroke:none;" d="M461 647L464 651L461 647z"/>
<path style="fill:#7f8c98; stroke:none;" d="M246 648L247 649L246 648z"/>
<path style="fill:#949da7; stroke:none;" d="M709.333 648.667L709.667 649.333L709.333 648.667z"/>
<path style="fill:#788490; stroke:none;" d="M211 649L212 650L211 649z"/>
<path style="fill:#6e7682; stroke:none;" d="M369 649L370 650L369 649z"/>
<path style="fill:#84918f; stroke:none;" d="M437 649L438 650L437 649z"/>
<path style="fill:#7f8c92; stroke:none;" d="M772 649L773 650L772 649z"/>
<path style="fill:#000000; stroke:none;" d="M320 650L322 653L320 650z"/>
<path style="fill:#010005; stroke:none;" d="M464 651L466 654L464 651z"/>
<path style="fill:#56607d; stroke:none;" d="M261 652L262 653L261 652z"/>
<path style="fill:#777588; stroke:none;" d="M321 653L322 654L321 653z"/>
<path style="fill:#000002; stroke:none;" d="M322 653L326 661L327 661L322 653z"/>
<path style="fill:#6e6f83; stroke:none;" d="M440 653L441 654L440 653z"/>
<path style="fill:#000000; stroke:none;" d="M365 654L362 660L363 660L365 654z"/>
<path style="fill:#000406; stroke:none;" d="M466 654L468 657L466 654z"/>
<path style="fill:#627393; stroke:none;" d="M556 654L556 670L557 670L556 654z"/>
<path style="fill:#8d93a4; stroke:none;" d="M215 655L216 656L215 655z"/>
<path style="fill:#5a6975; stroke:none;" d="M748 655L749 656L748 655z"/>
<path style="fill:#728490; stroke:none;" d="M788 655L789 656L788 655z"/>
<path style="fill:#838a96; stroke:none;" d="M468 656L469 657L468 656z"/>
<path style="fill:#7f90a6; stroke:none;" d="M676 656L677 657L676 656z"/>
<path style="fill:#828e99; stroke:none;" d="M217 657L218 658L217 657z"/>
<path style="fill:#00000b; stroke:none;" d="M271 657L271 658L282 669L283 669C280.856 663.235 276.765 659.144 271 657z"/>
<path style="fill:#000005; stroke:none;" d="M444 657L447 663L448 663L444 657z"/>
<path style="fill:#000008; stroke:none;" d="M468 657L475 667L468 657z"/>
<path style="fill:#97a4b5; stroke:none;" d="M650 657L650 658L671 658L650 657z"/>
<path style="fill:#526170; stroke:none;" d="M671.667 657.333L672.333 657.667L671.667 657.333z"/>
<path style="fill:#6b7386; stroke:none;" d="M769 657L770 658L769 657z"/>
<path style="fill:#7c8c9f; stroke:none;" d="M811 658L812 659L811 658z"/>
<path style="fill:#6d7686; stroke:none;" d="M221 660L222 661L221 660z"/>
<path style="fill:#000000; stroke:none;" d="M222 660L222 661L236 666L236 665L222 660z"/>
<path style="fill:#000001; stroke:none;" d="M361 660L357 668L358 668L361 660z"/>
<path style="fill:#697083; stroke:none;" d="M362 660L363 661L362 660z"/>
<path style="fill:#7a7e8a; stroke:none;" d="M445 660L446 661L445 660z"/>
<path style="fill:#878ca3; stroke:none;" d="M746 660L747 661L746 660z"/>
<path style="fill:#6c6b71; stroke:none;" d="M326 661L327 662L326 661z"/>
<path style="fill:#000006; stroke:none;" d="M327 661L329 666L330 666L327 661z"/>
<path style="fill:#6b6473; stroke:none;" d="M791 663L792 664L791 663z"/>
<path style="fill:#8b94a5; stroke:none;" d="M813 663L814 664L813 663z"/>
<path style="fill:#6a7077; stroke:none;" d="M229 664L230 665L229 664z"/>
<path style="fill:#5e6477; stroke:none;" d="M766 665L767 666L766 665z"/>
<path style="fill:#64697e; stroke:none;" d="M235 666L236 667L235 666z"/>
<path style="fill:#05040a; stroke:none;" d="M236 666L236 667C243.747 668.643 255.005 670.334 260.702 676.27C269.683 685.626 256.916 694.656 248 695.673C241.843 696.376 235.99 693.953 230 693C239.777 699.823 270.846 698.476 265.259 680.003C262.14 669.69 245.223 666.824 236 666z"/>
<path style="fill:#8c8d94; stroke:none;" d="M475 666L476 667L475 666z"/>
<path style="fill:#000013; stroke:none;" d="M693 682L694 682L689 672L699 666C689.1 669.752 687.463 672.873 693 682z"/>
<path style="fill:#7f828b; stroke:none;" d="M699 666L700 667L699 666z"/>
<path style="fill:#838086; stroke:none;" d="M450 667L451 668L450 667z"/>
<path style="fill:#000003; stroke:none;" d="M451 667L456 674L451 667z"/>
<path style="fill:#000007; stroke:none;" d="M475 667L480 674L475 667z"/>
<path style="fill:#8798b4; stroke:none;" d="M283 668L284 669L283 668z"/>
<path style="fill:#000000; stroke:none;" d="M356 668C350.551 680.012 354 698.926 354 712L334 712L333 669L332 669L333 713L355 713L356 668z"/>
<path style="fill:#72737a; stroke:none;" d="M357 668L358 669L357 668z"/>
<path style="fill:#000004; stroke:none;" d="M283 669C284.711 679.761 284.503 687.327 282 698L283 698C286.566 689.728 288.448 676.838 283 669z"/>
<path style="fill:#5e6d7e; stroke:none;" d="M331 669L332 670L331 669z"/>
<path style="fill:#9199ae; stroke:none;" d="M556 670L556 699L557 699L556 670z"/>
<path style="fill:#000000; stroke:none;" d="M764 671L764 672L794 672L764 671z"/>
<path style="fill:#b2c1d9; stroke:none;" d="M355 672L355 713L356 713C356 700.909 359.231 683.321 355 672z"/>
<path style="fill:#9eb3cd; stroke:none;" d="M433 672L433 682L434 682L433 672z"/>
<path style="fill:#78878d; stroke:none;" d="M741 673L742 674L741 673z"/>
<path style="fill:#828c95; stroke:none;" d="M455 674L456 675L455 674z"/>
<path style="fill:#030000; stroke:none;" d="M456 674L458 677L456 674z"/>
<path style="fill:#00062c; stroke:none;" d="M648 712L650 712L650 675L667 675C641.512 665.475 648 696.329 648 712z"/>
<path style="fill:#7b8da3; stroke:none;" d="M650 675L650 676L667 676L650 675z"/>
<path style="fill:#6f8494; stroke:none;" d="M482 676L483 677L482 676z"/>
<path style="fill:#445f85; stroke:none;" d="M484 676L483 679L484 676z"/>
<path style="fill:#737a81; stroke:none;" d="M818 676L819 677L818 676z"/>
<path style="fill:#7e8999; stroke:none;" d="M286 678L286 687L287 687L286 678z"/>
<path style="fill:#02050a; stroke:none;" d="M459 678L464 685L459 678z"/>
<path style="fill:#8e92a3; stroke:none;" d="M739 678L740 679L739 678z"/>
<path style="fill:#909aab; stroke:none;" d="M460 681L461 682L460 681z"/>
<path style="fill:#69657f; stroke:none;" d="M694 681L695 682L694 681z"/>
<path style="fill:#90969b; stroke:none;" d="M820 681L821 682L820 681z"/>
<path style="fill:#718aa8; stroke:none;" d="M433 682L433 696L434 696L433 682z"/>
<path style="fill:#60707f; stroke:none;" d="M670 682L671 683L670 682z"/>
<path style="fill:#000000; stroke:none;" d="M671 682L676 692L677 692L671 682z"/>
<path style="fill:#000009; stroke:none;" d="M694 682L700 694L701 694L694 682z"/>
<path style="fill:#03040c; stroke:none;" d="M215 688L224 690C221.297 687.245 217.983 684.397 215 688z"/>
<path style="fill:#5d6878; stroke:none;" d="M463 685L464 686L463 685z"/>
<path style="fill:#060000; stroke:none;" d="M464 685L466 688L464 685z"/>
<path style="fill:#89909b; stroke:none;" d="M697 686L698 687L697 686z"/>
<path style="fill:#878893; stroke:none;" d="M214 687L215 688L214 687z"/>
<path style="fill:#707585; stroke:none;" d="M673 687L674 688L673 687z"/>
<path style="fill:#000002; stroke:none;" d="M758 687L758 688L786 688C789.676 688 795.287 687.004 798.51 689.15C805.242 693.633 803.498 705.76 809.061 711.283C813.36 715.551 827.272 713 833 713L832 710C829.333 711.402 827.027 711.911 823.996 711.986C820.166 712.081 813.84 713.098 810.775 710.283C805.065 705.039 806.583 691.289 799.51 687.717C789.915 682.873 768.77 687 758 687z"/>
<path style="fill:#00000d; stroke:none;" d="M214 688L206 699L214 688z"/>
<path style="fill:#030000; stroke:none;" d="M757 688L751 706L752 706L757 688z"/>
<path style="fill:#9397a0; stroke:none;" d="M224 689L225 690L224 689z"/>
<path style="fill:#000000; stroke:none;" d="M467 689L469 692L467 689z"/>
<path style="fill:#000001; stroke:none;" d="M224 690L224 691L230 693L230 692L224 690z"/>
<path style="fill:#808597; stroke:none;" d="M757 690L758 691L757 690z"/>
<path style="fill:#657584; stroke:none;" d="M734 691L735 692L734 691z"/>
<path style="fill:#6b6d78; stroke:none;" d="M230 692L231 693L230 692z"/>
<path style="fill:#687382; stroke:none;" d="M468 692L469 693L468 692z"/>
<path style="fill:#030004; stroke:none;" d="M469 692L474 699L469 692z"/>
<path style="fill:#696f84; stroke:none;" d="M676 692L677 693L676 692z"/>
<path style="fill:#000315; stroke:none;" d="M677 692L682 702L683 702L677 692z"/>
<path style="fill:#848899; stroke:none;" d="M209 693L210 694L209 693z"/>
<path style="fill:#5b687a; stroke:none;" d="M701 693L702 694L701 693z"/>
<path style="fill:#7f8996; stroke:none;" d="M254 694L255 695L254 694z"/>
<path style="fill:#707983; stroke:none;" d="M825 694L826 695L825 694z"/>
<path style="fill:#78859c; stroke:none;" d="M241.667 695.333L242.333 695.667L241.667 695.333z"/>
<path style="fill:#929ca5; stroke:none;" d="M802 695L803 696L802 695z"/>
<path style="fill:#2f587e; stroke:none;" d="M433 696L433 712L434 712L433 696z"/>
<path style="fill:#9297a0; stroke:none;" d="M732 696L733 697L732 696z"/>
<path style="fill:#6b7386; stroke:none;" d="M205 698L206 699L205 698z"/>
<path style="fill:#666f7c; stroke:none;" d="M282 698L283 699L282 698z"/>
<path style="fill:#7c899a; stroke:none;" d="M704 698L705 699L704 698z"/>
<path style="fill:#848e99; stroke:none;" d="M754 698L755 699L754 698z"/>
<path style="fill:#626373; stroke:none;" d="M204 699L205 700L204 699z"/>
<path style="fill:#000300; stroke:none;" d="M205 699L208 702L205 699z"/>
<path style="fill:#848692; stroke:none;" d="M473 699L474 700L473 699z"/>
<path style="fill:#000000; stroke:none;" d="M474 699L479 706L474 699z"/>
<path style="fill:#000006; stroke:none;" d="M704 699L711 712L689 712L689 713L713 713L704 699z"/>
<path style="fill:#747f95; stroke:none;" d="M827 699L828 700L827 699z"/>
<path style="fill:#7f869f; stroke:none;" d="M280 701L281 702L280 701z"/>
<path style="fill:#6e7386; stroke:none;" d="M207 702L208 703L207 702z"/>
<path style="fill:#050301; stroke:none;" d="M208 702L218 708L218 707L208 702z"/>
<path style="fill:#5d6873; stroke:none;" d="M682 702L683 703L682 702z"/>
<path style="fill:#818e9e; stroke:none;" d="M829 704L830 705L829 704z"/>
<path style="fill:#5a6f80; stroke:none;" d="M478 706L479 707L478 706z"/>
<path style="fill:#000004; stroke:none;" d="M750 706C746.463 714.076 734.032 713.697 727 710L726 713C732.149 713 752.361 716.447 750 706z"/>
<path style="fill:#8c8f92; stroke:none;" d="M751 706L752 707L751 706z"/>
<path style="fill:#727672; stroke:none;" d="M685 707L686 708L685 707z"/>
<path style="fill:#7e8595; stroke:none;" d="M217 708L218 709L217 708z"/>
<path style="fill:#000117; stroke:none;" d="M218 708L218 709C235.238 715.64 252.629 716.691 270 710L270 709L238 712.8L218 708z"/>
<path style="fill:#9098aa; stroke:none;" d="M272 708L273 709L272 708z"/>
<path style="fill:#626a7a; stroke:none;" d="M270 709L271 710L270 709z"/>
<path style="fill:#676d7c; stroke:none;" d="M727 709L728 710L727 709z"/>
<path style="fill:#737881; stroke:none;" d="M268 710L269 711L268 710z"/>
<path style="fill:#788893; stroke:none;" d="M808 711L809 712L808 711z"/>
<path style="fill:#7f838f; stroke:none;" d="M228 712L229 713L228 712z"/>
<path style="fill:#9699a7; stroke:none;" d="M263 712L264 713L263 712z"/>
<path style="fill:#6b727f; stroke:none;" d="M688 712L689 713L688 712z"/>
<path style="fill:#848d9b; stroke:none;" d="M238 714L238 715L241 715L238 714z"/>
<path style="fill:#7c8894; stroke:none;" d="M251 714L251 715L254 715L251 714z"/>
<path style="fill:#c8ccd5; stroke:none;" d="M272 748L272 749L278 749L272 748z"/>
<path style="fill:#000000; stroke:none;" d="M269 810L269 809C259.657 806.76 249.855 803.431 243.378 795.937C232.432 783.272 237.718 764.699 251 756.185C265.261 747.045 278.741 751.581 294 753C279.9 743.659 252.97 748.477 242.378 761.028C230.383 775.242 235.877 796.884 252 804.965C257.188 807.566 263.239 809.415 269 810M698 830L699 830C695.875 817.407 691.609 806.333 693.316 793C696.739 766.259 721.948 748.732 748 750.06C757.189 750.529 765.36 754.414 774 757C755.708 739.753 716.803 749.265 702.558 767.01C688.997 783.905 688.3 811.049 698 830z"/>
<path style="fill:#92a1b5; stroke:none;" d="M754.667 749.333L755.333 749.667L754.667 749.333z"/>
<path style="fill:#001b48; stroke:none;" d="M269 811C272.636 810.549 275.584 811.084 279 812.48C283.741 814.418 289.011 817.653 290.288 823.001C293.082 834.7 274.475 842.792 266 837L243 830L234 841L234 842C252.32 857.29 298.307 863.793 308.047 835C312.667 821.342 305.824 814.031 302 802C290.939 799.211 270.864 794.869 262.074 787.542C253.906 780.732 257.735 770.378 267.001 767.029C279.983 762.337 290.777 775.728 302 772L305 768L309 761C295.176 755.033 283.744 748.494 268 750.207C247.521 752.434 228.665 772.131 240.589 792.997C247.228 804.615 259.901 803.512 269 811z"/>
<path style="fill:#838691; stroke:none;" d="M288 750L289 751L288 750z"/>
<path style="fill:#8f909b; stroke:none;" d="M729 750L730 751L729 750z"/>
<path style="fill:#001b48; stroke:none;" d="M779 846C780.697 841.241 786.057 839.375 788.658 834.986C797.193 820.589 799.613 799.871 794.456 784C782.18 746.217 725.644 736.962 702.071 770.001C683.669 795.791 692.58 837.19 722 850.314C739.602 858.165 762.32 854.282 779 846z"/>
<path style="fill:#000000; stroke:none;" d="M322 751L322 769L353 769L354 854L375 854L375 792L374 792L374 853L355 853L354 768L323 768L323 752L404 752L404 768L374 768L374 769L406 769L406 751L322 751M422 751C426.397 770.491 422.999 794.03 423 814C423.001 826.491 425.71 840.789 438 847C433.948 841.388 428.986 836.666 426.587 830C418.489 807.505 424 775.701 424 752L443 752L443 798C443 805.737 441.865 814.507 444.073 822C448.959 838.575 466.58 842.216 481 836L481 835C476.023 836.193 471.217 838.275 466 837.782C454.883 836.731 446.961 828.68 444.821 818C440.618 797.023 444 772.382 444 751L422 751z"/>
<path style="fill:#e0e9f4; stroke:none;" d="M444 751L444 817L445 817L445 773L444 751z"/>
<path style="fill:#030000; stroke:none;" d="M490 751C494.532 771.091 491 795.412 491 816L492 816L492 752L511 752C511 780.38 513.758 809.545 506 837L507 837C512.647 825.965 512 814.05 512 802L512 751L490 751z"/>
<path style="fill:#020000; stroke:none;" d="M536 751L536 854C558.47 854 585.618 858.314 606 847L606 846C582.558 853.017 561.418 853 537 853L537 752C554.235 752 573.106 749.93 590 753.919C597.704 755.738 603.798 760.124 611 763C594.906 744.549 557.774 751 536 751z"/>
<path style="fill:#424e69; stroke:none;" d="M582 751L582 752L585 752L582 751z"/>
<path style="fill:#8999aa; stroke:none;" d="M650 751L650 855L672 855L672 854L651 854L651 783L650 751z"/>
<path style="fill:#000000; stroke:none;" d="M651 751L651 854L672 854L672 751L651 751z"/>
<path style="fill:#dbe0e5; stroke:none;" d="M672 751L672 855L673 855L673 784L672 751z"/>
<path style="fill:#888e91; stroke:none;" d="M763 751L764 752L763 751z"/>
<path style="fill:#656b7a; stroke:none;" d="M294 752L295 753L294 752z"/>
<path style="fill:#001b49; stroke:none;" d="M323 752L323 768L354 768L355 853L374 853L374 768L404 768L404 752L323 752z"/>
<path style="fill:#092150; stroke:none;" d="M405 752L405 768L406 768L405 752z"/>
<path style="fill:#3e5378; stroke:none;" d="M422 752L422 817L423 817L423 773L422 752z"/>
<path style="fill:#001b49; stroke:none;" d="M424 752L424 802C424 817.027 423.512 831.009 434.066 842.989C441.577 851.513 451.737 849.75 460 856C473.516 853.538 486.532 853.521 499 847L505 841L510.803 817L511 752L492 752L492 801C492 809.688 492.753 820.317 487.939 827.997C477.933 843.956 453.349 841.801 445.562 825C441.84 816.971 443 807.607 443 799L443 752L424 752z"/>
<path style="fill:#364d6d; stroke:none;" d="M490 752L490 816L491 816L491 773L490 752z"/>
<path style="fill:#001b48; stroke:none;" d="M537 752L537 853C562.853 853 586.845 854.676 611 844C614.721 832.994 624.755 826.831 626.671 814C627.735 806.873 628.103 800.13 626.99 793C619.831 747.181 572.57 752 537 752M652 752L652 853L671 853L671 752L652 752z"/>
<path style="fill:#020007; stroke:none;" d="M294 753L294 754L306 760L294 753z"/>
<path style="fill:#7f8290; stroke:none;" d="M594 753L595 754L594 753z"/>
<path style="fill:#9796a0; stroke:none;" d="M597 754L598 755L597 754z"/>
<path style="fill:#697280; stroke:none;" d="M774 756L775 757L774 756z"/>
<path style="fill:#8d96a1; stroke:none;" d="M713 757L714 758L713 757z"/>
<path style="fill:#747181; stroke:none;" d="M777 758L778 759L777 758z"/>
<path style="fill:#828fa1; stroke:none;" d="M607 759L608 760L607 759z"/>
<path style="fill:#060000; stroke:none;" d="M777 759L781 762L777 759z"/>
<path style="fill:#757c8e; stroke:none;" d="M709 760L710 761L709 760z"/>
<path style="fill:#767a88; stroke:none;" d="M611 762L612 763L611 762z"/>
<path style="fill:#8d8e9b; stroke:none;" d="M782 762L783 763L782 762z"/>
<path style="fill:#7b8695; stroke:none;" d="M783 763L784 764L783 763z"/>
<path style="fill:#747a85; stroke:none;" d="M784 764L785 765L784 764z"/>
<path style="fill:#848c9b; stroke:none;" d="M785 765L786 766L785 765z"/>
<path style="fill:#000004; stroke:none;" d="M297 800L297 799C286.45 793.6 269.388 794.063 261.354 784.854C255.17 777.766 261.461 770.028 269 767.838C278.5 765.078 286.284 770.357 295 773C285.781 764.201 249.471 761.726 257.845 782.989C262.21 794.07 286.723 797.091 297 800z"/>
<path style="fill:#000000; stroke:none;" d="M721 777C736.979 766.299 745.14 766.588 763 772C752.496 761.982 728.152 763.6 721 777z"/>
<path style="fill:#020000; stroke:none;" d="M785 766C787.897 772.53 792.213 778.096 794.456 785C799.87 801.663 794.758 816.105 790 832L791 832C801.155 813.706 802.827 780.468 785 766z"/>
<path style="fill:#9aa7b1; stroke:none;" d="M278 767L278 768L281 768L278 767z"/>
<path style="fill:#020000; stroke:none;" d="M303 767L301 771L303 767z"/>
<path style="fill:#fefefe; stroke:none;" d="M738 767.503C699.46 774.787 709.072 844.644 750 837.37C790.734 830.13 780.9 759.395 738 767.503z"/>
<path style="fill:#000000; stroke:none;" d="M556 768L556 836L557 836L557 769L592 773C583.202 765.057 566.988 768 556 768z"/>
<path style="fill:#8e909c; stroke:none;" d="M237 769L238 770L237 769z"/>
<path style="fill:#2f4c72; stroke:none;" d="M374 769L374 782L375 782L374 769z"/>
<path style="fill:#4b5f81; stroke:none;" d="M557 769L557 836L558 836L558 791L557 769z"/>
<path style="fill:#fefefe; stroke:none;" d="M558 769L558 836C569.67 836 582.698 837.673 592.999 830.974C610.277 819.739 611.415 788.33 594.972 775.802C584.287 767.662 570.639 769 558 769z"/>
<path style="fill:#46434a; stroke:none;" d="M579.667 769.333L580.333 769.667L579.667 769.333z"/>
<path style="fill:#607086; stroke:none;" d="M731 769L732 770L731 769z"/>
<path style="fill:#878f9a; stroke:none;" d="M584 770L585 771L584 770z"/>
<path style="fill:#010002; stroke:none;" d="M618 770L621 776L622 776L618 770z"/>
<path style="fill:#6e777e; stroke:none;" d="M587 771L588 772L587 771z"/>
<path style="fill:#7a8196; stroke:none;" d="M699 771L700 772L699 771z"/>
<path style="fill:#000002; stroke:none;" d="M299 772L295 773L297 776L298 776L299 772z"/>
<path style="fill:#9f96a0; stroke:none;" d="M762 772L763 773L762 772z"/>
<path style="fill:#00050c; stroke:none;" d="M763 772L769 778L763 772z"/>
<path style="fill:#74727f; stroke:none;" d="M294 773L295 774L294 773z"/>
<path style="fill:#7e838e; stroke:none;" d="M591 773L592 774L591 773z"/>
<path style="fill:#000007; stroke:none;" d="M592 773L595 775L592 773z"/>
<path style="fill:#667488; stroke:none;" d="M298 775L299 776L298 775z"/>
<path style="fill:#879aa9; stroke:none;" d="M594 775L595 776L594 775z"/>
<path style="fill:#00030c; stroke:none;" d="M595 775L601 781L595 775z"/>
<path style="fill:#7e8396; stroke:none;" d="M622 775L623 776L622 775z"/>
<path style="fill:#bcc7cf; stroke:none;" d="M258 776L258 781L259 781L258 776z"/>
<path style="fill:#090000; stroke:none;" d="M622 776L623 780L624 780L622 776z"/>
<path style="fill:#000007; stroke:none;" d="M719 778C709.383 794.83 707.787 826.739 730 835L730 834C717.243 824.114 711.635 810.06 714.495 794C715.44 788.695 719.534 783.293 719 778z"/>
<path style="fill:#696a76; stroke:none;" d="M624 779L625 780L624 779z"/>
<path style="fill:#010000; stroke:none;" d="M770 779C776.619 800.833 780.269 829.676 751 837L751 838C776.258 836.278 786.202 795.976 770 779z"/>
<path style="fill:#040504; stroke:none;" d="M624 780C626.434 796.811 630.537 811.941 621.662 828C618.547 833.636 613.75 837.844 610 843C628.78 833.559 635.926 797.089 624 780z"/>
<path style="fill:#8d99b0; stroke:none;" d="M600 781L601 782L600 781z"/>
<path style="fill:#000000; stroke:none;" d="M601 781C606.802 800.138 607.061 808.435 599 827C610.869 817.157 611.545 792.049 601 781z"/>
<path style="fill:#748992; stroke:none;" d="M796 786L797 787L796 786z"/>
<path style="fill:#6a7981; stroke:none;" d="M627 788L628 789L627 788z"/>
<path style="fill:#828f9c; stroke:none;" d="M267 789L268 790L267 789z"/>
<path style="fill:#7d8b99; stroke:none;" d="M774 790L775 791L774 790z"/>
<path style="fill:#7e92a8; stroke:none;" d="M277 792L278 793L277 792z"/>
<path style="fill:#3b4654; stroke:none;" d="M628.333 793.667L628.667 794.333L628.333 793.667z"/>
<path style="fill:#6c798a; stroke:none;" d="M691 796L691 804L692 804L691 796z"/>
<path style="fill:#808e9c; stroke:none;" d="M606 797L606 806L607 806L606 797z"/>
<path style="fill:#6b707f; stroke:none;" d="M297 799L298 800L297 799z"/>
<path style="fill:#040101; stroke:none;" d="M297 800L300 802L297 800z"/>
<path style="fill:#798692; stroke:none;" d="M246 801L247 802L246 801z"/>
<path style="fill:#5b6273; stroke:none;" d="M300 801L301 802L300 801z"/>
<path style="fill:#6e7580; stroke:none;" d="M249 803L250 804L249 803z"/>
<path style="fill:#000000; stroke:none;" d="M301 803C312.525 820.223 310.715 831.583 299 848C313.727 840.483 316.467 811.256 301 803z"/>
<path style="fill:#3d4350; stroke:none;" d="M606.333 806.667L606.667 807.333L606.333 806.667z"/>
<path style="fill:#7a8796; stroke:none;" d="M258 807L259 808L258 807z"/>
<path style="fill:#8e99a2; stroke:none;" d="M306 807L307 808L306 807z"/>
<path style="fill:#868e97; stroke:none;" d="M261 808L262 809L261 808z"/>
<path style="fill:#686f79; stroke:none;" d="M775.333 808.667L775.667 809.333L775.333 808.667z"/>
<path style="fill:#000000; stroke:none;" d="M270 810L270 811C276.623 812.883 285.455 815.013 288.524 822.011C294.065 834.644 273.851 837.955 266 838C276.424 841.895 296.557 833.812 289.587 820.031C286.2 813.334 276.895 810.7 270 810z"/>
<path style="fill:#6f7a7f; stroke:none;" d="M628.333 810.667L628.667 811.333L628.333 810.667z"/>
<path style="fill:#94a1b1; stroke:none;" d="M692.333 812.667L692.667 813.333L692.333 812.667z"/>
<path style="fill:#abb7c3; stroke:none;" d="M797.333 812.667L797.667 813.333L797.333 812.667z"/>
<path style="fill:#798991; stroke:none;" d="M309 813L310 814L309 813z"/>
<path style="fill:#23364b; stroke:none;" d="M353 815L353 823L354 823L353 815z"/>
<path style="fill:#6e718e; stroke:none;" d="M715 815L716 816L715 815z"/>
<path style="fill:#00000c; stroke:none;" d="M490 816C489.253 823.986 485.511 828.665 481 835C487.658 831.602 492.756 823.537 490 816z"/>
<path style="fill:#7b828a; stroke:none;" d="M604 816L605 817L604 816z"/>
<path style="fill:#949cae; stroke:none;" d="M422.333 817.667L422.667 818.333L422.333 817.667z"/>
<path style="fill:#849198; stroke:none;" d="M694 821L695 822L694 821z"/>
<path style="fill:#818e9c; stroke:none;" d="M795 821L796 822L795 821z"/>
<path style="fill:#9294a2; stroke:none;" d="M601 822L602 823L601 822z"/>
<path style="fill:#96a6b2; stroke:none;" d="M289 823L289 827L290 827L289 823z"/>
<path style="fill:#4f6082; stroke:none;" d="M353 823L353 838L354 838L353 823z"/>
<path style="fill:#8f92a5; stroke:none;" d="M794 824L795 825L794 824z"/>
<path style="fill:#788593; stroke:none;" d="M598 826L599 827L598 826z"/>
<path style="fill:#00000b; stroke:none;" d="M244 827L232 843L240 847L240 846L234 842L234 841L243 830L250 832L250 831L244 827z"/>
<path style="fill:#75717b; stroke:none;" d="M597 827L598 828L597 827z"/>
<path style="fill:#000018; stroke:none;" d="M558 837L558 838C571.485 838 588.438 839.531 598 828C584.111 834.031 573.411 837 558 837z"/>
<path style="fill:#727c88; stroke:none;" d="M247 829L248 830L247 829z"/>
<path style="fill:#90919e; stroke:none;" d="M241 830L242 831L241 830z"/>
<path style="fill:#6e7782; stroke:none;" d="M698 830L699 831L698 830z"/>
<path style="fill:#6b7583; stroke:none;" d="M250 831L251 832L250 831z"/>
<path style="fill:#7995a6; stroke:none;" d="M310 831L311 832L310 831z"/>
<path style="fill:#000006; stroke:none;" d="M250 832L250 833L265 838L265 837L250 832z"/>
<path style="fill:#7a8393; stroke:none;" d="M286 832L287 833L286 832z"/>
<path style="fill:#010004; stroke:none;" d="M700 832L706 840L700 832z"/>
<path style="fill:#7b7f7f; stroke:none;" d="M285 833L286 834L285 833z"/>
<path style="fill:#737d89; stroke:none;" d="M480 834L481 835L480 834z"/>
<path style="fill:#666a7b; stroke:none;" d="M585 834L586 835L585 834z"/>
<path style="fill:#65728d; stroke:none;" d="M730 834L731 835L730 834z"/>
<path style="fill:#5b626e; stroke:none;" d="M258 835L259 836L258 835z"/>
<path style="fill:#5e5d68; stroke:none;" d="M732 835L733 836L732 835z"/>
<path style="fill:#5a6574; stroke:none;" d="M261 836L262 837L261 836z"/>
<path style="fill:#000000; stroke:none;" d="M732 836L732 837L750 839L750 838L732 836z"/>
<path style="fill:#727f8e; stroke:none;" d="M735 836L736 837L735 836z"/>
<path style="fill:#9294a2; stroke:none;" d="M470 837L470 838L473 838L470 837z"/>
<path style="fill:#040002; stroke:none;" d="M505 837L504 840L505 837z"/>
<path style="fill:#626b83; stroke:none;" d="M506 837L507 838L506 837z"/>
<path style="fill:#76829f; stroke:none;" d="M353 838L353 855L375 855L375 854L354 854L353 838z"/>
<path style="fill:#697786; stroke:none;" d="M307 839L308 840L307 839z"/>
<path style="fill:#000825; stroke:none;" d="M706 840C720.501 859.31 751.954 859.236 772 850L772 849C756.393 852.07 742.034 857.349 726 851.533C718.535 848.825 712.982 843.408 706 840z"/>
<path style="fill:#000208; stroke:none;" d="M502 841L498 846L502 841z"/>
<path style="fill:#000005; stroke:none;" d="M778 845L783 841L778 845z"/>
<path style="fill:#8e95a1; stroke:none;" d="M609 844L610 845L609 844z"/>
<path style="fill:#8d9495; stroke:none;" d="M606 846L607 847L606 846z"/>
<path style="fill:#6d6f73; stroke:none;" d="M239 847L240 848L239 847z"/>
<path style="fill:#00000e; stroke:none;" d="M240 847L240 848L248 851L248 850L240 847z"/>
<path style="fill:#646b77; stroke:none;" d="M437 847L438 848L437 847z"/>
<path style="fill:#9898a4; stroke:none;" d="M497 847L498 848L497 847z"/>
<path style="fill:#808692; stroke:none;" d="M299 848L300 849L299 848z"/>
<path style="fill:#828c96; stroke:none;" d="M440 849L441 850L440 849z"/>
<path style="fill:#606e76; stroke:none;" d="M717 849L718 850L717 849z"/>
<path style="fill:#5d6781; stroke:none;" d="M772 849L773 850L772 849z"/>
<path style="fill:#000000; stroke:none;" d="M248 851L248 852C264.156 857.147 280.125 857.115 296 851L273 854.776L248 851z"/>
<path style="fill:#585e72; stroke:none;" d="M442 850L443 851L442 850z"/>
<path style="fill:#000008; stroke:none;" d="M443 850L443 851L460 855L443 850z"/>
<path style="fill:#686c72; stroke:none;" d="M492 850L493 851L492 850z"/>
<path style="fill:#6b737d; stroke:none;" d="M247 851L248 852L247 851z"/>
<path style="fill:#929fa6; stroke:none;" d="M294 851L295 852L294 851z"/>
<path style="fill:#060000; stroke:none;" d="M462 855L462 856L490 852L462 855z"/>
<path style="fill:#696971; stroke:none;" d="M490 851L491 852L490 851z"/>
<path style="fill:#838b9b; stroke:none;" d="M595 851L596 852L595 851z"/>
<path style="fill:#7a899e; stroke:none;" d="M721 851L722 852L721 851z"/>
<path style="fill:#838c9e; stroke:none;" d="M768 851L769 852L768 851z"/>
<path style="fill:#5f6779; stroke:none;" d="M591 852L592 853L591 852z"/>
<path style="fill:#8491a6; stroke:none;" d="M449 853L450 854L449 853z"/>
<path style="fill:#646c76; stroke:none;" d="M285 854L286 855L285 854z"/>
<path style="fill:#7a8089; stroke:none;" d="M453 854L454 855L453 854z"/>
<path style="fill:#6f829b; stroke:none;" d="M536 854L536 855L579 855C567.173 850.58 548.637 854 536 854z"/>
<path style="fill:#7b868f; stroke:none;" d="M262.667 855.333L263.333 855.667L262.667 855.333z"/>
<path style="fill:#9da6a9; stroke:none;" d="M278 855L278 856L281 856L278 855z"/>
<path style="fill:#707480; stroke:none;" d="M458.667 855.333L459.333 855.667L458.667 855.333z"/>
<path style="fill:#acb2c5; stroke:none;" d="M475.667 855.333L476.333 855.667L475.667 855.333z"/>
<path style="fill:#8996a8; stroke:none;" d="M736.667 855.333L737.333 855.667L736.667 855.333z"/>
<path style="fill:#444956; stroke:none;" d="M751 855L751 856L754 856L751 855z"/>
</svg>
